<svg width="130" height="156" viewBox="0 0 130 156" fill="none" xmlns="http://www.w3.org/2000/svg">
<path d="M19.8594 139.695C19.8594 139.388 19.9688 139.182 20.1875 139.078C20.2604 139.042 20.3516 139.023 20.4609 139.023H24.0938C25.1146 139.023 25.9844 139.24 26.7031 139.672C27.5781 140.188 28.0156 140.977 28.0156 142.039C28.0156 142.763 27.8073 143.367 27.3906 143.852C27.0156 144.279 26.5365 144.549 25.9531 144.664V144.695C26.75 144.732 27.4115 144.964 27.9375 145.391C28.5365 145.891 28.8359 146.562 28.8359 147.406C28.8359 148.635 28.3854 149.56 27.4844 150.18C26.6979 150.727 25.6302 151 24.2812 151H20.4609C20.2474 151 20.0938 150.935 20 150.805C19.9062 150.669 19.8594 150.51 19.8594 150.328V139.695ZM21.7969 144.117C22.5885 144.117 23.2214 144.102 23.6953 144.07C24.4974 144.023 25.0859 143.846 25.4609 143.539C25.8359 143.227 26.0234 142.792 26.0234 142.234C26.0234 141.677 25.8229 141.279 25.4219 141.039C25.026 140.794 24.4323 140.672 23.6406 140.672H21.7969V144.117ZM24.2656 149.336C25.4115 149.336 26.1719 149.01 26.5469 148.359C26.6875 148.12 26.7578 147.839 26.7578 147.516C26.7578 147.193 26.7135 146.935 26.625 146.742C26.5365 146.549 26.4167 146.385 26.2656 146.25C26.1146 146.115 25.9375 146.008 25.7344 145.93C25.5312 145.846 25.3177 145.781 25.0938 145.734C24.7031 145.661 24.3125 145.625 23.9219 145.625C23.4323 145.625 22.9141 145.638 22.3672 145.664L21.7969 145.688L21.8047 149.336H24.2656ZM30.8281 146.562C30.8281 145.885 30.9401 145.266 31.1641 144.703C31.3932 144.135 31.7057 143.651 32.1016 143.25C32.9297 142.411 33.974 141.992 35.2344 141.992C36.6458 141.992 37.7396 142.411 38.5156 143.25C39.2656 144.057 39.6406 145.167 39.6406 146.578C39.6406 147.943 39.2161 149.057 38.3672 149.922C37.5391 150.771 36.4948 151.195 35.2344 151.195C33.9062 151.195 32.8385 150.76 32.0312 149.891C31.2292 149.042 30.8281 147.932 30.8281 146.562ZM33.3359 144.578C33.1432 144.865 33.0026 145.193 32.9141 145.562C32.8255 145.927 32.7812 146.299 32.7812 146.68C32.7812 147.055 32.8307 147.417 32.9297 147.766C33.0339 148.109 33.1875 148.417 33.3906 148.688C33.8385 149.281 34.4635 149.578 35.2656 149.578C36.0833 149.578 36.7031 149.286 37.125 148.703C37.5 148.193 37.6875 147.497 37.6875 146.617C37.6875 145.299 37.2552 144.391 36.3906 143.891C36.0729 143.708 35.6875 143.617 35.2344 143.617C34.7865 143.617 34.4062 143.706 34.0938 143.883C33.7865 144.055 33.5339 144.286 33.3359 144.578ZM41.5 146.562C41.5 145.885 41.612 145.266 41.8359 144.703C42.0651 144.135 42.3776 143.651 42.7734 143.25C43.6016 142.411 44.6458 141.992 45.9062 141.992C47.3177 141.992 48.4115 142.411 49.1875 143.25C49.9375 144.057 50.3125 145.167 50.3125 146.578C50.3125 147.943 49.888 149.057 49.0391 149.922C48.2109 150.771 47.1667 151.195 45.9062 151.195C44.5781 151.195 43.5104 150.76 42.7031 149.891C41.901 149.042 41.5 147.932 41.5 146.562ZM44.0078 144.578C43.8151 144.865 43.6745 145.193 43.5859 145.562C43.4974 145.927 43.4531 146.299 43.4531 146.68C43.4531 147.055 43.5026 147.417 43.6016 147.766C43.7057 148.109 43.8594 148.417 44.0625 148.688C44.5104 149.281 45.1354 149.578 45.9375 149.578C46.7552 149.578 47.375 149.286 47.7969 148.703C48.1719 148.193 48.3594 147.497 48.3594 146.617C48.3594 145.299 47.9271 144.391 47.0625 143.891C46.7448 143.708 46.3594 143.617 45.9062 143.617C45.4583 143.617 45.0781 143.706 44.7656 143.883C44.4583 144.055 44.2057 144.286 44.0078 144.578ZM57.4453 143.375C57.4453 143.667 57.2812 143.812 56.9531 143.812H54.75V148.719C54.75 149.25 55.013 149.516 55.5391 149.516C55.8724 149.516 56.3073 149.349 56.8438 149.016C56.9479 148.948 57.0599 148.914 57.1797 148.914C57.3047 148.914 57.4036 149 57.4766 149.172L57.6562 149.578C57.724 149.734 57.7578 149.867 57.7578 149.977C57.7578 150.086 57.6745 150.214 57.5078 150.359C57.3464 150.5 57.138 150.628 56.8828 150.742C56.3047 151.003 55.7812 151.133 55.3125 151.133C54.8438 151.133 54.4714 151.086 54.1953 150.992C53.9245 150.893 53.6927 150.747 53.5 150.555C53.0833 150.148 52.875 149.562 52.875 148.797V143.812H52.2188C51.8906 143.812 51.7266 143.664 51.7266 143.367V142.922C51.7266 142.802 51.7578 142.708 51.8203 142.641C51.8828 142.573 52.0052 142.521 52.1875 142.484L52.9688 142.258L53.2656 140.422C53.3229 140.078 53.4635 139.906 53.6875 139.906H54.3359C54.4557 139.906 54.5547 139.956 54.6328 140.055C54.7109 140.148 54.75 140.271 54.75 140.422V142.188H56.9531C57.2812 142.188 57.4453 142.331 57.4453 142.617V143.375ZM61.7734 149.594C62.7734 149.594 63.2734 149.258 63.2734 148.586C63.2734 148.216 62.9896 147.904 62.4219 147.648C62.1823 147.539 61.9193 147.438 61.6328 147.344C61.3516 147.25 61.0807 147.138 60.8203 147.008C60.5599 146.878 60.3151 146.737 60.0859 146.586C59.862 146.43 59.6667 146.253 59.5 146.055C59.1562 145.638 58.9844 145.109 58.9844 144.469C58.9844 143.688 59.3099 143.068 59.9609 142.609C60.5391 142.198 61.25 141.992 62.0938 141.992C63 141.992 63.7578 142.169 64.3672 142.523C64.5755 142.648 64.6797 142.792 64.6797 142.953C64.6797 143.182 64.6172 143.435 64.4922 143.711C64.3724 143.982 64.2292 144.117 64.0625 144.117C63.901 144.117 63.7526 144.083 63.6172 144.016C63.487 143.948 63.3672 143.891 63.2578 143.844C63.1536 143.792 63.0417 143.75 62.9219 143.719C62.6615 143.641 62.4193 143.602 62.1953 143.602C61.9766 143.602 61.7995 143.617 61.6641 143.648C61.5286 143.68 61.4062 143.729 61.2969 143.797C61.0312 143.958 60.8984 144.156 60.8984 144.391C60.8984 144.625 60.9505 144.805 61.0547 144.93C61.1641 145.055 61.3125 145.169 61.5 145.273C61.6875 145.378 61.9115 145.482 62.1719 145.586L63.0156 145.938C63.6979 146.234 64.1589 146.503 64.3984 146.742C64.8672 147.221 65.1016 147.776 65.1016 148.406C65.1016 149.198 64.8307 149.849 64.2891 150.359C63.6901 150.917 62.8385 151.195 61.7344 151.195C60.6146 151.195 59.7734 150.979 59.2109 150.547C58.9349 150.339 58.7969 150.151 58.7969 149.984C58.7969 149.818 58.8255 149.669 58.8828 149.539C58.9453 149.404 59.0234 149.247 59.1172 149.07C59.2161 148.888 59.3464 148.797 59.5078 148.797C59.6745 148.797 59.849 148.872 60.0312 149.023C60.2188 149.169 60.474 149.302 60.7969 149.422C61.1198 149.536 61.4453 149.594 61.7734 149.594ZM72.1016 143.375C72.1016 143.667 71.9375 143.812 71.6094 143.812H69.4062V148.719C69.4062 149.25 69.6693 149.516 70.1953 149.516C70.5286 149.516 70.9635 149.349 71.5 149.016C71.6042 148.948 71.7161 148.914 71.8359 148.914C71.9609 148.914 72.0599 149 72.1328 149.172L72.3125 149.578C72.3802 149.734 72.4141 149.867 72.4141 149.977C72.4141 150.086 72.3307 150.214 72.1641 150.359C72.0026 150.5 71.7943 150.628 71.5391 150.742C70.9609 151.003 70.4375 151.133 69.9688 151.133C69.5 151.133 69.1276 151.086 68.8516 150.992C68.5807 150.893 68.349 150.747 68.1562 150.555C67.7396 150.148 67.5312 149.562 67.5312 148.797V143.812H66.875C66.5469 143.812 66.3828 143.664 66.3828 143.367V142.922C66.3828 142.802 66.4141 142.708 66.4766 142.641C66.5391 142.573 66.6615 142.521 66.8438 142.484L67.625 142.258L67.9219 140.422C67.9792 140.078 68.1198 139.906 68.3438 139.906H68.9922C69.112 139.906 69.2109 139.956 69.2891 140.055C69.3672 140.148 69.4062 140.271 69.4062 140.422V142.188H71.6094C71.9375 142.188 72.1016 142.331 72.1016 142.617V143.375ZM73.7891 142.75C73.7891 142.375 73.9531 142.188 74.2812 142.188H74.7031C74.9896 142.188 75.1927 142.312 75.3125 142.562C75.4844 142.927 75.6094 143.43 75.6875 144.07C75.6875 144.081 75.6901 144.086 75.6953 144.086C75.7057 144.086 75.724 143.997 75.75 143.82C75.776 143.643 75.8516 143.427 75.9766 143.172C76.1016 142.911 76.2552 142.693 76.4375 142.516C76.8073 142.167 77.2604 141.992 77.7969 141.992C78.3958 141.992 78.8125 142.091 79.0469 142.289C79.1562 142.378 79.2005 142.5 79.1797 142.656L79.0547 143.641C79.0234 143.906 78.888 144.039 78.6484 144.039C78.5339 144.039 78.3932 144.016 78.2266 143.969C77.9036 143.885 77.6484 143.844 77.4609 143.844C77.2734 143.844 77.0755 143.927 76.8672 144.094C76.6589 144.255 76.4792 144.458 76.3281 144.703C76.0208 145.214 75.8672 145.758 75.8672 146.336V150.484C75.8672 150.63 75.8255 150.753 75.7422 150.852C75.6589 150.951 75.5391 151 75.3828 151H74.4766C74.3099 151 74.1823 150.951 74.0938 150.852C74.0104 150.753 73.9688 150.63 73.9688 150.484V145.102C73.9688 144.185 73.9375 143.581 73.875 143.289C73.8177 142.992 73.7891 142.812 73.7891 142.75ZM87.7422 150.586C87.7422 150.862 87.6068 151 87.3359 151H86.5781C86.375 151 86.2526 150.961 86.2109 150.883C86.1693 150.799 86.1458 150.727 86.1406 150.664C86.1354 150.596 86.125 150.516 86.1094 150.422C86.0781 150.167 86.0339 149.891 85.9766 149.594C85.5703 150.339 84.9323 150.831 84.0625 151.07C83.7552 151.154 83.4167 151.195 83.0469 151.195C82.6771 151.195 82.3073 151.133 81.9375 151.008C81.5677 150.888 81.2396 150.708 80.9531 150.469C80.3073 149.927 79.9844 149.216 79.9844 148.336C79.9844 147.372 80.3385 146.635 81.0469 146.125C81.6302 145.714 82.3802 145.508 83.2969 145.508C84.2135 145.508 84.9896 145.776 85.625 146.312C85.6406 146.135 85.6484 145.914 85.6484 145.648C85.6484 145.383 85.5964 145.117 85.4922 144.852C85.388 144.586 85.2396 144.365 85.0469 144.188C84.651 143.839 84.099 143.664 83.3906 143.664C82.7552 143.664 82.1094 143.839 81.4531 144.188C81.3281 144.255 81.2188 144.289 81.125 144.289C80.9844 144.289 80.849 144.151 80.7188 143.875C80.5781 143.594 80.5078 143.391 80.5078 143.266C80.5078 143.036 80.6797 142.815 81.0234 142.602C81.6797 142.195 82.5573 141.992 83.6562 141.992C84.6562 141.992 85.4844 142.266 86.1406 142.812C86.9167 143.469 87.3047 144.396 87.3047 145.594C87.3047 146.125 87.2188 146.794 87.0469 147.602C87.4896 148.862 87.7214 149.857 87.7422 150.586ZM82.5078 147.273C82.2943 147.43 82.1406 147.586 82.0469 147.742C81.9583 147.898 81.9141 148.083 81.9141 148.297C81.9141 148.505 81.9505 148.693 82.0234 148.859C82.1016 149.021 82.2083 149.156 82.3438 149.266C82.6302 149.49 82.9505 149.602 83.3047 149.602C83.6641 149.602 83.9583 149.56 84.1875 149.477C84.4167 149.393 84.6146 149.286 84.7812 149.156C85.1406 148.875 85.3203 148.578 85.3203 148.266C85.2891 147.875 85.0729 147.568 84.6719 147.344C84.3125 147.135 83.888 147.031 83.3984 147.031C83.0182 147.031 82.7214 147.112 82.5078 147.273ZM91.9531 149.648C92.0052 150.169 92.0312 150.82 92.0312 151.602V154.828C92.0312 155.214 91.8776 155.406 91.5703 155.406H90.6016C90.2734 155.406 90.1094 155.203 90.1094 154.797V146.148C90.1094 144.685 90.0312 143.617 89.875 142.945C89.8594 142.878 89.8516 142.784 89.8516 142.664C89.8516 142.544 89.8984 142.435 89.9922 142.336C90.0911 142.237 90.2161 142.188 90.3672 142.188H90.8438C91.1302 142.188 91.3333 142.312 91.4531 142.562C91.5938 142.854 91.7005 143.232 91.7734 143.695C92.138 143.06 92.6354 142.596 93.2656 142.305C93.7135 142.096 94.2214 141.992 94.7891 141.992C95.362 141.992 95.8724 142.104 96.3203 142.328C96.7682 142.547 97.1406 142.849 97.4375 143.234C98.026 144 98.3203 145.026 98.3203 146.312C98.3203 147.656 97.9896 148.792 97.3281 149.719C96.6302 150.703 95.7161 151.195 94.5859 151.195C93.4089 151.195 92.5312 150.68 91.9531 149.648ZM91.8516 146.875C91.8516 147.625 92.1016 148.271 92.6016 148.812C93.0755 149.323 93.612 149.578 94.2109 149.578C94.9661 149.578 95.526 149.211 95.8906 148.477C96.1823 147.893 96.3281 147.156 96.3281 146.266C96.3281 145.547 96.1562 144.938 95.8125 144.438C95.4427 143.896 94.9505 143.625 94.3359 143.625C93.6432 143.625 93.0521 143.911 92.5625 144.484C92.0885 145.047 91.8516 145.701 91.8516 146.445V146.875ZM106.906 146.344C107.422 145.99 108.076 145.812 108.867 145.812C109.799 145.812 110.578 146.109 111.203 146.703C111.88 147.344 112.219 148.206 112.219 149.289C112.219 150.43 111.828 151.344 111.047 152.031C110.276 152.714 109.253 153.055 107.977 153.055C106.997 153.055 106.133 152.852 105.383 152.445C105.07 152.279 104.758 152.031 104.445 151.703C104.289 151.542 104.302 151.331 104.484 151.07L104.805 150.609C104.93 150.417 105.055 150.32 105.18 150.32C105.31 150.32 105.401 150.346 105.453 150.398C105.51 150.445 105.578 150.497 105.656 150.555C106.292 151.091 107.109 151.359 108.109 151.359C108.703 151.359 109.201 151.188 109.602 150.844C110.034 150.479 110.25 149.966 110.25 149.305C110.25 148.711 110.049 148.224 109.648 147.844C109.284 147.495 108.865 147.32 108.391 147.32C107.734 147.32 107.193 147.5 106.766 147.859C106.568 148.026 106.349 148.109 106.109 148.109C106.047 148.109 105.984 148.104 105.922 148.094C105.865 148.078 105.786 148.065 105.688 148.055C105.589 148.039 105.5 148.023 105.422 148.008C105.344 147.987 105.281 147.958 105.234 147.922C105.156 147.854 105.117 147.724 105.117 147.531V142.492C105.117 142.18 105.156 141.977 105.234 141.883C105.354 141.721 105.56 141.641 105.852 141.641H110.984C111.161 141.641 111.294 141.664 111.383 141.711C111.477 141.758 111.523 141.87 111.523 142.047V142.805C111.523 142.997 111.505 143.12 111.469 143.172C111.401 143.271 111.255 143.32 111.031 143.32H106.906V146.344Z" fill="black"/>
<g filter="url(#filter0_d_41_577)">
<rect x="15" y="15" width="100" height="100" rx="10" fill="#A10035"/>
</g>
<g filter="url(#filter1_d_41_577)">
<rect x="42.5" y="42.5" width="45" height="45" fill="white"/>
<path d="M69.8804 65.4412C68.9468 65.134 67.6028 65.2 65.8484 65.2H58.8V74.4H66.3376C67.5152 74.4 68.3424 74.274 68.8188 74.186C69.6584 74.0356 70.3604 73.7444 70.9244 73.3932C71.488 73.0428 71.9516 72.5112 72.3156 71.8408C72.6788 71.1704 72.8608 70.386 72.8608 69.5088C72.8608 68.4816 72.5976 67.6928 72.0708 66.9344C71.5444 66.176 70.8144 65.7484 69.8804 65.4412ZM68.9128 61.2348C69.8396 60.9596 70.5384 60.4788 71.0084 59.84C71.4788 59.2008 71.7136 58.3876 71.7136 57.4224C71.7136 56.508 71.494 55.6968 71.0552 55.0008C70.6164 54.3048 69.9904 54.0356 69.1756 53.7784C68.3608 53.522 66.9636 53.6 64.9836 53.6H58.8V61.6H65.4348C67.0516 61.6 68.2104 61.448 68.9128 61.2348ZM90 46.65C90 42.9772 87.0228 40 83.35 40H46.65C42.9772 40 40 42.9772 40 46.65V83.35C40 87.0228 42.9772 90 46.65 90H83.35C87.0228 90 90 87.0228 90 83.35V46.65ZM75.8212 73.098C75.2764 74.2072 74.6024 75.0624 73.8004 75.664C72.998 76.2656 71.992 76.776 70.7828 77.0832C69.574 77.3908 68.0916 77.6 66.3376 77.6H55.2V50H66.168C68.2736 50 69.962 50.2436 71.234 50.8008C72.5064 51.3588 73.5024 52.1996 74.2236 53.3588C74.944 54.518 75.3044 55.7216 75.3044 56.9872C75.3044 58.1652 74.9844 59.2704 74.3456 60.3104C73.7064 61.3512 72.7412 62.188 71.4508 62.8272C73.1172 63.316 74.3988 64.1488 75.2948 65.3264C76.1908 66.5044 76.6388 67.8952 76.6388 69.4992C76.6388 70.79 76.3664 71.9892 75.8212 73.098Z" fill="#5B4282"/>
</g>
<defs>
<filter id="filter0_d_41_577" x="0" y="0" width="130" height="130" filterUnits="userSpaceOnUse" color-interpolation-filters="sRGB">
<feFlood flood-opacity="0" result="BackgroundImageFix"/>
<feColorMatrix in="SourceAlpha" type="matrix" values="0 0 0 0 0 0 0 0 0 0 0 0 0 0 0 0 0 0 127 0" result="hardAlpha"/>
<feMorphology radius="5" operator="dilate" in="SourceAlpha" result="effect1_dropShadow_41_577"/>
<feOffset/>
<feGaussianBlur stdDeviation="5"/>
<feComposite in2="hardAlpha" operator="out"/>
<feColorMatrix type="matrix" values="0 0 0 0 0 0 0 0 0 0 0 0 0 0 0 0 0 0 0.25 0"/>
<feBlend mode="normal" in2="BackgroundImageFix" result="effect1_dropShadow_41_577"/>
<feBlend mode="normal" in="SourceGraphic" in2="effect1_dropShadow_41_577" result="shape"/>
</filter>
<filter id="filter1_d_41_577" x="30" y="34" width="70" height="70" filterUnits="userSpaceOnUse" color-interpolation-filters="sRGB">
<feFlood flood-opacity="0" result="BackgroundImageFix"/>
<feColorMatrix in="SourceAlpha" type="matrix" values="0 0 0 0 0 0 0 0 0 0 0 0 0 0 0 0 0 0 127 0" result="hardAlpha"/>
<feOffset dy="4"/>
<feGaussianBlur stdDeviation="5"/>
<feComposite in2="hardAlpha" operator="out"/>
<feColorMatrix type="matrix" values="0 0 0 0 0 0 0 0 0 0 0 0 0 0 0 0 0 0 0.25 0"/>
<feBlend mode="normal" in2="BackgroundImageFix" result="effect1_dropShadow_41_577"/>
<feBlend mode="normal" in="SourceGraphic" in2="effect1_dropShadow_41_577" result="shape"/>
</filter>
</defs>
</svg>
