<svg width="130" height="155" viewBox="0 0 130 155" fill="none" xmlns="http://www.w3.org/2000/svg">
<path d="M54.2656 141.562C54.2656 142.208 53.9792 142.531 53.4062 142.531H52.8672C52.7005 142.531 52.5703 142.471 52.4766 142.352C52.388 142.227 52.3359 142.057 52.3203 141.844C52.3099 141.625 52.2448 141.427 52.125 141.25C52.0052 141.068 51.8516 140.922 51.6641 140.812C51.3151 140.609 50.8516 140.508 50.2734 140.508C49.6953 140.508 49.1927 140.63 48.7656 140.875C48.3385 141.115 47.9948 141.438 47.7344 141.844C47.2344 142.604 46.9844 143.62 46.9844 144.891C46.9844 147.177 47.7292 148.615 49.2188 149.203C49.6771 149.38 50.125 149.469 50.5625 149.469C51.3542 149.469 52.0521 149.326 52.6562 149.039L53.0938 148.836C53.2344 148.773 53.3594 148.742 53.4688 148.742C53.5781 148.742 53.6667 148.768 53.7344 148.82C53.8021 148.872 53.8854 148.997 53.9844 149.195C54.0885 149.388 54.1406 149.557 54.1406 149.703C54.1406 149.844 54.0911 149.984 53.9922 150.125C53.8932 150.26 53.7708 150.38 53.625 150.484C53.3698 150.651 53.0625 150.789 52.7031 150.898C52.0469 151.096 51.2786 151.195 50.3984 151.195C49.5234 151.195 48.7396 151.036 48.0469 150.719C47.3594 150.401 46.7812 149.961 46.3125 149.398C45.349 148.253 44.8672 146.75 44.8672 144.891C44.8672 143.057 45.3542 141.594 46.3281 140.5C47.3229 139.375 48.6927 138.812 50.4375 138.812C51.3958 138.812 52.2448 139.026 52.9844 139.453C53.8385 139.943 54.2656 140.646 54.2656 141.562ZM55.5 149.773C55.5 149.586 55.5755 149.365 55.7266 149.109C55.8776 148.854 55.9792 148.698 56.0312 148.641C56.1354 148.516 56.2396 148.453 56.3438 148.453C56.4531 148.453 56.5677 148.487 56.6875 148.555C56.8073 148.622 56.9661 148.708 57.1641 148.812C57.3672 148.911 57.5833 149.005 57.8125 149.094C58.3229 149.286 58.7682 149.383 59.1484 149.383C59.5339 149.383 59.8464 149.349 60.0859 149.281C60.3255 149.214 60.5312 149.112 60.7031 148.977C61.0573 148.69 61.2344 148.289 61.2344 147.773C61.2344 147.122 60.7422 146.568 59.7578 146.109C59.4766 145.979 59.1589 145.849 58.8047 145.719C58.4557 145.583 58.0859 145.404 57.6953 145.18C57.3099 144.956 56.9635 144.693 56.6562 144.391C55.974 143.714 55.6328 142.917 55.6328 142C55.6328 141.026 56.0312 140.245 56.8281 139.656C57.5729 139.104 58.4505 138.828 59.4609 138.828C60.5859 138.828 61.5104 139.073 62.2344 139.562C62.6302 139.823 62.8281 140.065 62.8281 140.289C62.8281 140.409 62.7578 140.602 62.6172 140.867C62.4766 141.133 62.362 141.312 62.2734 141.406C62.1901 141.5 62.112 141.547 62.0391 141.547C61.9089 141.547 61.737 141.477 61.5234 141.336C61.3151 141.195 61.0156 141.042 60.625 140.875C60.2344 140.708 59.8646 140.625 59.5156 140.625C59.1667 140.625 58.8854 140.654 58.6719 140.711C58.4635 140.768 58.2812 140.854 58.125 140.969C57.8021 141.214 57.6406 141.57 57.6406 142.039C57.6406 142.716 58.1042 143.253 59.0312 143.648L59.7891 143.961C60.8047 144.352 61.5755 144.784 62.1016 145.258C62.8255 145.914 63.1875 146.719 63.1875 147.672C63.1875 148.734 62.7865 149.599 61.9844 150.266C61.2448 150.885 60.3776 151.195 59.3828 151.195C58.1068 151.195 57.0208 150.932 56.125 150.406C55.7083 150.167 55.5 149.956 55.5 149.773ZM64.8281 149.773C64.8281 149.586 64.9036 149.365 65.0547 149.109C65.2057 148.854 65.3073 148.698 65.3594 148.641C65.4635 148.516 65.5677 148.453 65.6719 148.453C65.7812 148.453 65.8958 148.487 66.0156 148.555C66.1354 148.622 66.2943 148.708 66.4922 148.812C66.6953 148.911 66.9115 149.005 67.1406 149.094C67.651 149.286 68.0964 149.383 68.4766 149.383C68.862 149.383 69.1745 149.349 69.4141 149.281C69.6536 149.214 69.8594 149.112 70.0312 148.977C70.3854 148.69 70.5625 148.289 70.5625 147.773C70.5625 147.122 70.0703 146.568 69.0859 146.109C68.8047 145.979 68.487 145.849 68.1328 145.719C67.7839 145.583 67.4141 145.404 67.0234 145.18C66.638 144.956 66.2917 144.693 65.9844 144.391C65.3021 143.714 64.9609 142.917 64.9609 142C64.9609 141.026 65.3594 140.245 66.1562 139.656C66.901 139.104 67.7786 138.828 68.7891 138.828C69.9141 138.828 70.8385 139.073 71.5625 139.562C71.9583 139.823 72.1562 140.065 72.1562 140.289C72.1562 140.409 72.0859 140.602 71.9453 140.867C71.8047 141.133 71.6901 141.312 71.6016 141.406C71.5182 141.5 71.4401 141.547 71.3672 141.547C71.237 141.547 71.0651 141.477 70.8516 141.336C70.6432 141.195 70.3438 141.042 69.9531 140.875C69.5625 140.708 69.1927 140.625 68.8438 140.625C68.4948 140.625 68.2135 140.654 68 140.711C67.7917 140.768 67.6094 140.854 67.4531 140.969C67.1302 141.214 66.9688 141.57 66.9688 142.039C66.9688 142.716 67.4323 143.253 68.3594 143.648L69.1172 143.961C70.1328 144.352 70.9036 144.784 71.4297 145.258C72.1536 145.914 72.5156 146.719 72.5156 147.672C72.5156 148.734 72.1146 149.599 71.3125 150.266C70.5729 150.885 69.7057 151.195 68.7109 151.195C67.4349 151.195 66.349 150.932 65.4531 150.406C65.0365 150.167 64.8281 149.956 64.8281 149.773ZM78.4766 150.789C78.6484 150.523 78.8359 150.443 79.0391 150.547C79.1016 150.578 79.2031 150.641 79.3438 150.734C79.4844 150.823 79.6458 150.911 79.8281 151C80.0156 151.083 80.2031 151.151 80.3906 151.203C80.7292 151.292 81.0625 151.336 81.3906 151.336C81.7188 151.336 82.0052 151.305 82.25 151.242C82.4948 151.18 82.7161 151.081 82.9141 150.945C83.362 150.638 83.5859 150.208 83.5859 149.656C83.5859 149.146 83.3542 148.75 82.8906 148.469C82.4531 148.208 81.8828 148.078 81.1797 148.078C80.862 148.078 80.6302 148.091 80.4844 148.117C80.3021 148.148 80.1823 148.164 80.125 148.164C80.0677 148.164 80.0104 148.128 79.9531 148.055C79.8958 147.982 79.8516 147.896 79.8203 147.797C79.763 147.615 79.7344 147.453 79.7344 147.312C79.7344 147.167 79.7552 147.049 79.7969 146.961C79.8438 146.867 79.9401 146.805 80.0859 146.773C81.6016 146.435 82.5573 145.938 82.9531 145.281C83.1042 145.036 83.1797 144.781 83.1797 144.516C83.1797 144.25 83.1328 144.036 83.0391 143.875C82.9505 143.708 82.8281 143.57 82.6719 143.461C82.3594 143.237 81.9766 143.125 81.5234 143.125C81.1641 143.125 80.862 143.193 80.6172 143.328C80.1641 143.578 79.8984 143.878 79.8203 144.227C79.7578 144.471 79.5964 144.594 79.3359 144.594C79.0807 144.594 78.8828 144.573 78.7422 144.531C78.6016 144.484 78.4922 144.427 78.4141 144.359C78.2891 144.245 78.2266 144.068 78.2266 143.828C78.2266 143.583 78.276 143.349 78.375 143.125C78.4792 142.896 78.6172 142.693 78.7891 142.516C78.9661 142.333 79.1693 142.174 79.3984 142.039C79.6276 141.904 79.8698 141.792 80.125 141.703C80.6302 141.521 81.1224 141.43 81.6016 141.43C82.0859 141.43 82.5312 141.487 82.9375 141.602C83.349 141.716 83.7135 141.891 84.0312 142.125C84.7396 142.646 85.0938 143.367 85.0938 144.289C85.0938 145.055 84.7969 145.708 84.2031 146.25C83.7917 146.62 83.276 146.909 82.6562 147.117C83.4844 147.117 84.1667 147.367 84.7031 147.867C85.2188 148.352 85.4766 148.904 85.4766 149.523C85.4766 150.138 85.3646 150.656 85.1406 151.078C84.9219 151.505 84.6354 151.865 84.2812 152.156C83.5469 152.755 82.7031 153.055 81.75 153.055C80.3125 153.055 79.2057 152.734 78.4297 152.094C78.1797 151.896 78.0547 151.734 78.0547 151.609C78.0547 151.49 78.0833 151.385 78.1406 151.297L78.4766 150.789Z" fill="black"/>
<g filter="url(#filter0_d_41_583)">
<rect x="15" y="15" width="100" height="100" rx="10" fill="#A10035"/>
</g>
<g filter="url(#filter1_d_41_583)">
<path d="M47.0939 85.0018L43 40H88L83.9006 84.9946L65.4727 90L47.0939 85.0018Z" fill="#1572B6"/>
<path d="M65.5002 86.1749L80.3921 82.1303L83.8954 43.6803H65.5002V86.1749Z" fill="#33A9DC"/>
<path d="M65.5002 59.9839H72.9553L73.4693 54.3321H65.5002V48.8125H65.5203H79.6265L79.4917 50.2929L78.1082 65.5036H65.5002V59.9839Z" fill="white"/>
<path d="M65.5346 74.3179L65.5091 74.3251L59.2352 72.6644L58.8342 68.2626H55.7848H53.1782L53.9675 76.9286L65.5073 80.0679L65.5346 80.0608V74.3179Z" fill="#EBEBEB"/>
<path d="M72.4757 65.2697L71.7977 72.6607L65.5146 74.3214V80.0643L77.0636 76.9286L77.1493 75.9964L78.1281 65.2697H72.4757Z" fill="white"/>
<path d="M65.5198 48.8125V52.2411V54.3179V54.3321H51.9294H51.9112L51.7981 53.0911L51.5411 50.2929L51.4062 48.8125H65.5198Z" fill="#EBEBEB"/>
<path d="M65.4999 59.9839V63.4125V65.4892V65.5035H59.3226H59.3043L59.1913 64.2625L58.9362 61.4642L58.8013 59.9839H65.4999Z" fill="#EBEBEB"/>
</g>
<defs>
<filter id="filter0_d_41_583" x="0" y="0" width="130" height="130" filterUnits="userSpaceOnUse" color-interpolation-filters="sRGB">
<feFlood flood-opacity="0" result="BackgroundImageFix"/>
<feColorMatrix in="SourceAlpha" type="matrix" values="0 0 0 0 0 0 0 0 0 0 0 0 0 0 0 0 0 0 127 0" result="hardAlpha"/>
<feMorphology radius="5" operator="dilate" in="SourceAlpha" result="effect1_dropShadow_41_583"/>
<feOffset/>
<feGaussianBlur stdDeviation="5"/>
<feComposite in2="hardAlpha" operator="out"/>
<feColorMatrix type="matrix" values="0 0 0 0 0 0 0 0 0 0 0 0 0 0 0 0 0 0 0.25 0"/>
<feBlend mode="normal" in2="BackgroundImageFix" result="effect1_dropShadow_41_583"/>
<feBlend mode="normal" in="SourceGraphic" in2="effect1_dropShadow_41_583" result="shape"/>
</filter>
<filter id="filter1_d_41_583" x="33" y="34" width="65" height="70" filterUnits="userSpaceOnUse" color-interpolation-filters="sRGB">
<feFlood flood-opacity="0" result="BackgroundImageFix"/>
<feColorMatrix in="SourceAlpha" type="matrix" values="0 0 0 0 0 0 0 0 0 0 0 0 0 0 0 0 0 0 127 0" result="hardAlpha"/>
<feOffset dy="4"/>
<feGaussianBlur stdDeviation="5"/>
<feComposite in2="hardAlpha" operator="out"/>
<feColorMatrix type="matrix" values="0 0 0 0 0 0 0 0 0 0 0 0 0 0 0 0 0 0 0.25 0"/>
<feBlend mode="normal" in2="BackgroundImageFix" result="effect1_dropShadow_41_583"/>
<feBlend mode="normal" in="SourceGraphic" in2="effect1_dropShadow_41_583" result="shape"/>
</filter>
</defs>
</svg>
