<svg width="130" height="155" viewBox="0 0 130 155" fill="none" xmlns="http://www.w3.org/2000/svg">
<path d="M42.7656 139.523C42.7656 139.388 42.8073 139.271 42.8906 139.172C42.9792 139.073 43.0833 139.023 43.2031 139.023H44.2969C44.4167 139.023 44.5182 139.073 44.6016 139.172C44.6849 139.271 44.7266 139.388 44.7266 139.523V144.195H50.5469V139.523C50.5469 139.388 50.5885 139.271 50.6719 139.172C50.7604 139.073 50.8646 139.023 50.9844 139.023H52.0781C52.1979 139.023 52.2995 139.073 52.3828 139.172C52.4661 139.271 52.5078 139.388 52.5078 139.523V150.492C52.5078 150.628 52.4635 150.745 52.375 150.844C52.2917 150.943 52.1901 150.992 52.0703 150.992H50.9766C50.8568 150.992 50.7552 150.943 50.6719 150.844C50.5885 150.745 50.5469 150.628 50.5469 150.492V145.922H44.7266V150.5C44.7266 150.635 44.6823 150.753 44.5938 150.852C44.5104 150.951 44.4089 151 44.2891 151H43.1953C43.0755 151 42.974 150.951 42.8906 150.852C42.8073 150.753 42.7656 150.635 42.7656 150.5V139.523ZM57.9375 140.727H55.1172C54.9818 140.727 54.8646 140.685 54.7656 140.602C54.6719 140.513 54.625 140.406 54.625 140.281V139.461C54.625 139.341 54.6719 139.24 54.7656 139.156C54.8646 139.068 54.9818 139.023 55.1172 139.023H62.8359C62.9714 139.023 63.0729 139.068 63.1406 139.156C63.2135 139.24 63.25 139.344 63.25 139.469V140.289C63.25 140.409 63.2135 140.513 63.1406 140.602C63.0677 140.685 62.9635 140.727 62.8281 140.727H59.9062V150.5C59.9062 150.635 59.862 150.753 59.7734 150.852C59.6901 150.951 59.5885 151 59.4688 151H58.3672C58.2474 151 58.1458 150.951 58.0625 150.852C57.9792 150.753 57.9375 150.635 57.9375 150.5V140.727ZM78.5312 150.609C78.5312 150.87 78.4401 151 78.2578 151H76.9609C76.862 151 76.776 150.969 76.7031 150.906C76.6302 150.844 76.5885 150.766 76.5781 150.672L76.0391 146C75.9714 145.411 75.9193 144.831 75.8828 144.258C75.8516 143.685 75.8151 143.086 75.7734 142.461L75.6953 141.352C75.6953 141.331 75.6875 141.32 75.6719 141.32C75.6615 141.32 75.6536 141.328 75.6484 141.344L75.2969 142.625C75.224 142.885 75.1432 143.146 75.0547 143.406L72.6172 150.039C72.5911 150.117 72.5391 150.19 72.4609 150.258C72.3828 150.326 72.3047 150.359 72.2266 150.359H71C70.8385 150.359 70.7083 150.255 70.6094 150.047C68.8021 145.812 67.8385 143.549 67.7188 143.258C67.6042 142.961 67.5026 142.68 67.4141 142.414L67.0625 141.336C67.0573 141.32 67.0469 141.312 67.0312 141.312C67.0208 141.312 67.013 141.323 67.0078 141.344V142.609C67.0078 143.714 66.9635 144.841 66.875 145.992L66.5234 150.672C66.513 150.755 66.4635 150.831 66.375 150.898C66.2917 150.966 66.2031 151 66.1094 151H65.0312C64.9062 151 64.8021 150.945 64.7188 150.836C64.6406 150.727 64.6094 150.594 64.625 150.438L65.5625 140.156C65.599 139.724 65.651 139.451 65.7188 139.336C65.8385 139.128 66.0573 139.023 66.375 139.023H67.2188C67.474 139.023 67.651 139.057 67.75 139.125C67.9323 139.245 68.0911 139.471 68.2266 139.805L71.5938 148.008L74.5391 139.797C74.7109 139.281 75.0026 139.023 75.4141 139.023H76.2969C76.7552 139.023 77.0234 139.234 77.1016 139.656C77.1224 139.792 77.1432 139.938 77.1641 140.094L78.5156 150.445C78.526 150.497 78.5312 150.552 78.5312 150.609ZM81.3984 139.523C81.3984 139.388 81.4401 139.271 81.5234 139.172C81.612 139.073 81.7161 139.023 81.8359 139.023H82.9297C83.0495 139.023 83.151 139.073 83.2344 139.172C83.3177 139.271 83.3594 139.388 83.3594 139.523V149.258H87.5938C87.7292 149.258 87.8307 149.302 87.8984 149.391C87.9714 149.474 88.0078 149.578 88.0078 149.703V150.562C88.0078 150.682 87.9714 150.786 87.8984 150.875C87.8307 150.958 87.7292 151 87.5938 151H81.8281C81.7083 151 81.6068 150.951 81.5234 150.852C81.4401 150.753 81.3984 150.635 81.3984 150.5V139.523Z" fill="black"/>
<g filter="url(#filter0_d_41_595)">
<rect x="15" y="15" width="100" height="100" rx="10" fill="#A10035"/>
</g>
<g filter="url(#filter1_d_41_595)">
<path d="M47.0954 85.0018L43 40H88L83.8992 84.9946L65.4727 90L47.0954 85.0018Z" fill="#E44F26"/>
<path d="M65.5005 86.1749L80.3911 82.1303L83.8942 43.6803H65.5005V86.1749Z" fill="#F1662A"/>
<path d="M65.5006 60.3697H58.0462L57.5322 54.7179H65.5006V49.1982H65.4806H51.3755L51.5104 50.6804L52.8937 65.8893H65.5006V60.3697Z" fill="#EBEBEB"/>
<path d="M65.4999 74.7036L65.4744 74.7107L59.201 73.0518L58.8001 68.65H55.7509H53.1445L53.9337 77.3143L65.4744 80.4536L65.4999 80.4465V74.7036Z" fill="#EBEBEB"/>
<path d="M65.48 60.3696V65.8893H72.4168L71.7643 73.0482L65.48 74.7089V80.4518L77.0298 77.3143L77.1136 76.3821L78.4368 61.8518L78.5754 60.3696H77.0571H65.48Z" fill="white"/>
<path d="M65.4802 49.1982V52.6268V54.7054V54.7179H79.0695H79.0878L79.2008 53.4786L79.4577 50.6804L79.5926 49.1982H65.4802Z" fill="white"/>
</g>
<defs>
<filter id="filter0_d_41_595" x="0" y="0" width="130" height="130" filterUnits="userSpaceOnUse" color-interpolation-filters="sRGB">
<feFlood flood-opacity="0" result="BackgroundImageFix"/>
<feColorMatrix in="SourceAlpha" type="matrix" values="0 0 0 0 0 0 0 0 0 0 0 0 0 0 0 0 0 0 127 0" result="hardAlpha"/>
<feMorphology radius="5" operator="dilate" in="SourceAlpha" result="effect1_dropShadow_41_595"/>
<feOffset/>
<feGaussianBlur stdDeviation="5"/>
<feComposite in2="hardAlpha" operator="out"/>
<feColorMatrix type="matrix" values="0 0 0 0 0 0 0 0 0 0 0 0 0 0 0 0 0 0 0.25 0"/>
<feBlend mode="normal" in2="BackgroundImageFix" result="effect1_dropShadow_41_595"/>
<feBlend mode="normal" in="SourceGraphic" in2="effect1_dropShadow_41_595" result="shape"/>
</filter>
<filter id="filter1_d_41_595" x="33" y="34" width="65" height="70" filterUnits="userSpaceOnUse" color-interpolation-filters="sRGB">
<feFlood flood-opacity="0" result="BackgroundImageFix"/>
<feColorMatrix in="SourceAlpha" type="matrix" values="0 0 0 0 0 0 0 0 0 0 0 0 0 0 0 0 0 0 127 0" result="hardAlpha"/>
<feOffset dy="4"/>
<feGaussianBlur stdDeviation="5"/>
<feComposite in2="hardAlpha" operator="out"/>
<feColorMatrix type="matrix" values="0 0 0 0 0 0 0 0 0 0 0 0 0 0 0 0 0 0 0.25 0"/>
<feBlend mode="normal" in2="BackgroundImageFix" result="effect1_dropShadow_41_595"/>
<feBlend mode="normal" in="SourceGraphic" in2="effect1_dropShadow_41_595" result="shape"/>
</filter>
</defs>
</svg>
