<svg width="156" height="50" viewBox="0 0 156 50" fill="none" xmlns="http://www.w3.org/2000/svg">
<path d="M25 15.625C22.5136 15.625 20.129 16.6127 18.3709 18.3709C16.6127 20.129 15.625 22.5136 15.625 25V37.5C15.625 39.9864 16.6127 42.371 18.3709 44.1291C20.129 45.8873 22.5136 46.875 25 46.875C27.4864 46.875 29.871 45.8873 31.6291 44.1291C33.3873 42.371 34.375 39.9864 34.375 37.5V25C34.375 22.5136 33.3873 20.129 31.6291 18.3709C29.871 16.6127 27.4864 15.625 25 15.625ZM18.3594 27.9219H31.6406V34.5625H18.3594V27.9219ZM25 44.1406C23.2413 44.1324 21.557 43.4301 20.3134 42.1866C19.0699 40.943 18.3676 39.2587 18.3594 37.5V37.2969H31.6406V37.5C31.6324 39.2587 30.9301 40.943 29.6866 42.1866C28.443 43.4301 26.7587 44.1324 25 44.1406ZM31.6406 25.1875H18.3594V25C18.3594 23.2388 19.059 21.5497 20.3044 20.3044C21.5497 19.059 23.2388 18.3594 25 18.3594C26.7612 18.3594 28.4503 19.059 29.6956 20.3044C30.941 21.5497 31.6406 23.2388 31.6406 25V25.1875Z" fill="#1F70C1"/>
<path d="M47.9062 30.0156L37.5 20.3125V34.5313C37.5 36.1889 38.1585 37.7786 39.3306 38.9507C40.5027 40.1228 42.0924 40.7812 43.75 40.7812C45.4076 40.7812 46.9973 40.1228 48.1694 38.9507C49.3415 37.7786 50 36.1889 50 34.5313C49.9955 33.6724 49.8061 32.8246 49.4449 32.0454C49.0836 31.2663 48.5588 30.574 47.9062 30.0156ZM43.75 38.0469C42.8176 38.0469 41.9234 37.6765 41.2641 37.0172C40.6048 36.3579 40.2344 35.4637 40.2344 34.5313V26.5625L46.0469 31.9844C46.3965 32.2785 46.6791 32.6439 46.8759 33.0563C47.0726 33.4686 47.1789 33.9182 47.1875 34.375C47.2084 34.8432 47.1356 35.3108 46.9732 35.7503C46.8108 36.1899 46.5621 36.5926 46.2419 36.9347C45.9216 37.2768 45.5362 37.5514 45.1082 37.7424C44.6803 37.9334 44.2185 38.0369 43.75 38.0469Z" fill="#1F70C1"/>
<path d="M0 34.5313C0 36.1889 0.65848 37.7786 1.83058 38.9507C3.00269 40.1228 4.5924 40.7812 6.25 40.7812C7.9076 40.7812 9.49732 40.1228 10.6694 38.9507C11.8415 37.7786 12.5 36.1889 12.5 34.5313V20.3125L2.09375 30.0156C1.44508 30.5773 0.923017 31.2702 0.562084 32.0487C0.201151 32.8271 0.00956708 33.6733 0 34.5313H0ZM3.875 32.0938L9.76562 26.5625V34.5313C9.76562 35.4637 9.39523 36.3579 8.73592 37.0172C8.07661 37.6765 7.1824 38.0469 6.25 38.0469C5.3176 38.0469 4.42339 37.6765 3.76408 37.0172C3.10477 36.3579 2.73438 35.4637 2.73438 34.5313C2.7363 34.0665 2.83932 33.6078 3.03628 33.1869C3.23325 32.766 3.51944 32.393 3.875 32.0938Z" fill="#1F70C1"/>
<path d="M23.4375 8.59375C23.4375 7.51214 23.1168 6.45481 22.5159 5.55548C21.9149 4.65615 21.0608 3.9552 20.0616 3.54129C19.0623 3.12737 17.9627 3.01907 16.9019 3.23008C15.841 3.4411 14.8666 3.96194 14.1018 4.72676C13.3369 5.49158 12.8161 6.46602 12.6051 7.52685C12.3941 8.58769 12.5024 9.68727 12.9163 10.6866C13.3302 11.6858 14.0311 12.5399 14.9305 13.1409C15.8298 13.7418 16.8871 14.0625 17.9688 14.0625C19.4192 14.0625 20.8102 13.4863 21.8357 12.4607C22.8613 11.4352 23.4375 10.0442 23.4375 8.59375ZM15.2344 8.59375C15.2344 8.05294 15.3947 7.52428 15.6952 7.07462C15.9957 6.62495 16.4227 6.27448 16.9224 6.06752C17.422 5.86056 17.9718 5.80641 18.5022 5.91192C19.0326 6.01742 19.5198 6.27785 19.9022 6.66026C20.2847 7.04267 20.5451 7.52989 20.6506 8.0603C20.7561 8.59072 20.7019 9.14051 20.495 9.64015C20.288 10.1398 19.9376 10.5668 19.4879 10.8673C19.0382 11.1678 18.5096 11.3281 17.9688 11.3281C17.2461 11.32 16.5553 11.0293 16.0442 10.5183C15.5332 10.0072 15.2425 9.31643 15.2344 8.59375Z" fill="#1F70C1"/>
<path d="M32.0313 3.125C30.9496 3.125 29.8923 3.44574 28.993 4.04665C28.0936 4.64756 27.3927 5.50167 26.9788 6.50095C26.5649 7.50023 26.4566 8.59982 26.6676 9.66065C26.8786 10.7215 27.3994 11.6959 28.1643 12.4607C28.9291 13.2256 29.9035 13.7464 30.9644 13.9574C32.0252 14.1684 33.1248 14.0601 34.1241 13.6462C35.1233 13.2323 35.9774 12.5314 36.5784 11.632C37.1793 10.7327 37.5 9.67537 37.5 8.59375C37.5 7.14335 36.9238 5.75235 35.8982 4.72676C34.8727 3.70117 33.4817 3.125 32.0313 3.125ZM32.0313 11.3281C31.4904 11.3281 30.9618 11.1678 30.5121 10.8673C30.0624 10.5668 29.712 10.1398 29.505 9.64015C29.2981 9.14051 29.2439 8.59072 29.3494 8.0603C29.4549 7.52988 29.7153 7.04266 30.0978 6.66025C30.4802 6.27785 30.9674 6.01742 31.4978 5.91192C32.0282 5.80641 32.578 5.86056 33.0777 6.06752C33.5773 6.27448 34.0043 6.62495 34.3048 7.07461C34.6053 7.52428 34.7656 8.05294 34.7656 8.59375C34.7575 9.31643 34.4668 10.0072 33.9558 10.5183C33.4447 11.0293 32.7539 11.32 32.0313 11.3281Z" fill="#1F70C1"/>
<path d="M60 6V8.62358H78.6603V6H60ZM81.3041 6V8.62358H107.896C107.896 8.62358 105.18 6 101.582 6H81.3041ZM113.112 6V8.62358H129.2L128.245 6H113.112ZM140.734 6L139.779 8.62358H155.721V6H140.734ZM60 11.1022V13.7258H78.6603V11.1022H60ZM81.3041 11.106V13.7258H110.982C110.982 13.7258 110.635 11.7066 110.03 11.106H81.3041ZM113.112 11.106V13.7258H130.964L130.08 11.106H113.112ZM138.824 11.106L137.94 13.7258H155.721V11.106H138.824ZM65.3625 16.2045V18.8318H73.4438V16.2045H65.3625ZM86.6667 16.2045V18.8318H94.7479V16.2045H86.6667ZM102.608 16.2045V18.8318H110.69C110.69 18.8318 111.203 17.4443 111.203 16.2045H102.608ZM118.475 16.2045V18.8318H132.802L131.848 16.2045H118.475ZM137.064 16.2045L136.105 18.8318H150.504V16.2045H137.064ZM65.3625 21.3104V23.934H73.4438V21.3104H65.3625ZM86.6667 21.3104V23.934H107.308C107.308 23.934 109.035 22.5878 109.585 21.3104H86.6667ZM118.475 21.3104V23.934H126.556V22.4736L127.069 23.934H141.872L142.423 22.4736V23.934H150.504V21.3104H135.334L134.529 23.5327L133.72 21.3104H118.475ZM65.3625 26.4127V29.0362H73.4438V26.4127H65.3625ZM86.6667 26.4127V29.0362H109.585C109.035 27.763 107.308 26.4127 107.308 26.4127H86.6667ZM118.475 26.4127V29.0362H126.556V26.4127H118.475ZM128.024 26.4127L129.002 29.0362H140.101L141.03 26.4127H128.024ZM142.423 26.4127V29.0362H150.504V26.4127H142.423ZM65.3625 31.5149V34.1385H73.4438V31.5149H65.3625ZM86.6667 31.5149V34.1385H94.7479V31.5149H86.6667ZM102.608 31.5149V34.1385H111.203C111.203 32.9003 110.69 31.5149 110.69 31.5149H102.608ZM118.475 31.5149V34.1385H126.556V31.5149H118.475ZM129.859 31.5149L130.807 34.1385H138.247L139.202 31.5149H129.859ZM142.423 31.5149V34.1385H150.504V31.5149H142.423ZM60.146 36.6171V39.2444H78.8063V36.6171H60.146ZM81.3041 36.6171V39.2444H110.03C110.635 38.6428 110.982 36.6171 110.982 36.6171H81.3041ZM113.258 36.6171V39.2444H126.556V36.6171H113.258ZM131.698 36.6171L132.671 39.2444H136.457L137.371 36.6171H131.698ZM142.423 36.6171V39.2444H155.867V36.6171H142.423ZM60.146 41.7231V44.3467H78.8063V41.7231H60.146ZM81.3041 41.7231V44.343H101.582C105.18 44.3429 107.896 41.7231 107.896 41.7231H81.3041ZM113.258 41.7231V44.3467H126.556V41.7231H113.258ZM133.544 41.7231L134.48 44.3392L134.641 44.343L135.592 41.7231H133.544ZM142.423 41.7231V44.3467H155.867V41.7231H142.423Z" fill="#1F70C1"/>
</svg>
