<svg width="64" height="56" viewBox="0 0 64 56" fill="none" xmlns="http://www.w3.org/2000/svg">
<rect x="0.5" y="27.9285" width="63" height="27.5714" stroke="black"/>
<rect x="3.34473" y="24.3569" width="55.8889" height="2.57143" stroke="black"/>
<rect x="6.8999" y="20.7856" width="48.7778" height="2.57143" stroke="black"/>
<rect x="10.4556" y="17.2144" width="41.6667" height="2.57143" stroke="black"/>
<rect x="14.0112" y="13.6428" width="34.5556" height="2.57143" stroke="black"/>
<rect x="17.5664" y="10.0713" width="27.4444" height="2.57143" stroke="black"/>
<rect x="21.1221" y="6.5" width="20.3333" height="2.57143" stroke="black"/>
<rect x="24.6777" y="2.92847" width="13.2222" height="2.57143" stroke="black"/>
<ellipse cx="31.4313" cy="1.71429" rx="0.711111" ry="0.714286" fill="black"/>
<path d="M31.4313 0L32.0472 1.07143H30.8155L31.4313 0Z" fill="black"/>
<ellipse cx="29.2975" cy="1.71429" rx="0.711111" ry="0.714286" fill="black"/>
<path d="M29.2975 0L29.9134 1.07143H28.6817L29.2975 0Z" fill="black"/>
<ellipse cx="27.1642" cy="1.71429" rx="0.711111" ry="0.714286" fill="black"/>
<path d="M27.1642 0L27.7801 1.07143H26.5484L27.1642 0Z" fill="black"/>
<ellipse cx="33.5641" cy="1.71429" rx="0.711111" ry="0.714286" fill="black"/>
<path d="M33.5641 0L34.18 1.07143H32.9483L33.5641 0Z" fill="black"/>
<ellipse cx="35.6979" cy="1.71429" rx="0.711111" ry="0.714286" fill="black"/>
<path d="M35.6979 0L36.3138 1.07143H35.0821L35.6979 0Z" fill="black"/>
<rect x="24.6777" y="35.0713" width="13.2222" height="20.4286" stroke="black"/>
<rect x="30.5776" y="24.9287" width="1.42222" height="1.42857" fill="black"/>
<rect x="30.5776" y="21.3572" width="1.42222" height="1.42857" fill="black"/>
<rect x="30.5776" y="17.7856" width="1.42222" height="1.42857" fill="black"/>
<rect x="30.5776" y="14.2144" width="1.42222" height="1.42857" fill="black"/>
<rect x="30.5776" y="10.6431" width="1.42222" height="1.42857" fill="black"/>
<rect x="30.5776" y="7.07153" width="1.42222" height="1.42857" fill="black"/>
<rect x="30.5776" y="3.5" width="1.42222" height="1.42857" fill="black"/>
<rect x="3.55566" y="27.4285" width="3.55556" height="28.5714" fill="black"/>
<rect x="42.6665" y="27.4285" width="3.55556" height="28.5714" fill="black"/>
<rect x="10.6665" y="27.4285" width="3.55556" height="28.5714" fill="black"/>
<rect x="49.7778" y="27.4285" width="3.55556" height="28.5714" fill="black"/>
<rect x="17.7778" y="27.4285" width="3.55556" height="28.5714" fill="black"/>
<rect x="56.8887" y="27.4285" width="3.55556" height="28.5714" fill="black"/>
<rect x="24.1777" y="34.5713" width="14.2222" height="3.57143" fill="black"/>
</svg>
