<svg width="130" height="155" viewBox="0 0 130 155" fill="none" xmlns="http://www.w3.org/2000/svg">
<path d="M32.75 150.516C32.75 150.839 32.5729 151 32.2188 151H31.2969C31.1146 151 30.9844 150.951 30.9062 150.852C30.8281 150.753 30.7891 150.641 30.7891 150.516V139.711C30.7891 139.529 30.8359 139.37 30.9297 139.234C31.0286 139.094 31.1875 139.023 31.4062 139.023H34.5C35.9583 139.023 37.0885 139.372 37.8906 140.07C38.7292 140.794 39.1484 141.828 39.1484 143.172C39.1484 144.526 38.6771 145.609 37.7344 146.422C36.8385 147.198 35.7057 147.586 34.3359 147.586C33.9036 147.586 33.375 147.547 32.75 147.469V150.516ZM32.75 145.828L33.375 145.898C33.5625 145.919 33.8177 145.93 34.1406 145.93C34.4635 145.93 34.8125 145.88 35.1875 145.781C35.5625 145.682 35.8906 145.523 36.1719 145.305C36.7917 144.831 37.1016 144.122 37.1016 143.18C37.1016 141.987 36.5729 141.219 35.5156 140.875C35.1875 140.771 34.8203 140.719 34.4141 140.719H32.75V145.828ZM44.0703 146.977L39.8203 139.656C39.7734 139.578 39.75 139.492 39.75 139.398C39.75 139.305 39.7839 139.219 39.8516 139.141C39.9193 139.062 40.0052 139.023 40.1094 139.023H41.3672C41.5807 139.023 41.7292 139.094 41.8125 139.234C41.8333 139.276 41.8568 139.318 41.8828 139.359L45 145.07C45.0208 145.117 45.0391 145.141 45.0547 145.141C45.0755 145.141 45.2318 144.906 45.5234 144.438C45.8151 143.964 46.1979 143.266 46.6719 142.344C47.1458 141.422 47.5807 140.471 47.9766 139.492C48.0391 139.336 48.112 139.219 48.1953 139.141C48.2786 139.062 48.4036 139.023 48.5703 139.023H49.7812C49.9062 139.023 50 139.068 50.0625 139.156C50.125 139.24 50.1562 139.336 50.1562 139.445C50.1562 139.549 50.1354 139.648 50.0938 139.742C48.7448 142.529 47.3854 144.901 46.0156 146.859V150.5C46.0156 150.641 45.9714 150.76 45.8828 150.859C45.7995 150.953 45.6979 151 45.5781 151H44.5C44.3802 151 44.2786 150.951 44.1953 150.852C44.112 150.753 44.0703 150.635 44.0703 150.5V146.977ZM53.875 140.727H51.0547C50.9193 140.727 50.8021 140.685 50.7031 140.602C50.6094 140.513 50.5625 140.406 50.5625 140.281V139.461C50.5625 139.341 50.6094 139.24 50.7031 139.156C50.8021 139.068 50.9193 139.023 51.0547 139.023H58.7734C58.9089 139.023 59.0104 139.068 59.0781 139.156C59.151 139.24 59.1875 139.344 59.1875 139.469V140.289C59.1875 140.409 59.151 140.513 59.0781 140.602C59.0052 140.685 58.901 140.727 58.7656 140.727H55.8438V150.5C55.8438 150.635 55.7995 150.753 55.7109 150.852C55.6276 150.951 55.526 151 55.4062 151H54.3047C54.1849 151 54.0833 150.951 54 150.852C53.9167 150.753 53.875 150.635 53.875 150.5V140.727ZM61.2969 139.523C61.2969 139.388 61.3385 139.271 61.4219 139.172C61.5104 139.073 61.6146 139.023 61.7344 139.023H62.8281C62.9479 139.023 63.0495 139.073 63.1328 139.172C63.2161 139.271 63.2578 139.388 63.2578 139.523V144.195H69.0781V139.523C69.0781 139.388 69.1198 139.271 69.2031 139.172C69.2917 139.073 69.3958 139.023 69.5156 139.023H70.6094C70.7292 139.023 70.8307 139.073 70.9141 139.172C70.9974 139.271 71.0391 139.388 71.0391 139.523V150.492C71.0391 150.628 70.9948 150.745 70.9062 150.844C70.8229 150.943 70.7214 150.992 70.6016 150.992H69.5078C69.388 150.992 69.2865 150.943 69.2031 150.844C69.1198 150.745 69.0781 150.628 69.0781 150.492V145.922H63.2578V150.5C63.2578 150.635 63.2135 150.753 63.125 150.852C63.0417 150.951 62.9401 151 62.8203 151H61.7266C61.6068 151 61.5052 150.951 61.4219 150.852C61.3385 150.753 61.2969 150.635 61.2969 150.5V139.523ZM74.3984 148.047C74.1745 147.578 74.0026 147.081 73.8828 146.555C73.7682 146.023 73.7109 145.398 73.7109 144.68C73.7109 143.956 73.849 143.221 74.125 142.477C74.4062 141.732 74.8021 141.089 75.3125 140.547C76.3906 139.401 77.7865 138.828 79.5 138.828C81.3229 138.828 82.7526 139.414 83.7891 140.586C84.7734 141.695 85.2656 143.143 85.2656 144.93C85.2656 146.701 84.724 148.182 83.6406 149.375C83.1302 149.938 82.5182 150.383 81.8047 150.711C81.0911 151.034 80.3672 151.195 79.6328 151.195C78.9036 151.195 78.2812 151.12 77.7656 150.969C77.25 150.812 76.7786 150.596 76.3516 150.32C75.9297 150.039 75.5547 149.706 75.2266 149.32C74.8984 148.935 74.6224 148.51 74.3984 148.047ZM75.8281 144.875C75.8281 145.474 75.8984 146.042 76.0391 146.578C76.1849 147.115 76.4062 147.594 76.7031 148.016C77.3594 148.938 78.2839 149.398 79.4766 149.398C80.6745 149.398 81.599 148.958 82.25 148.078C82.849 147.266 83.1484 146.214 83.1484 144.922C83.1484 143.703 82.8438 142.698 82.2344 141.906C81.5625 141.047 80.6458 140.617 79.4844 140.617C78.3646 140.617 77.474 141.018 76.8125 141.82C76.1562 142.607 75.8281 143.625 75.8281 144.875ZM88.0547 139.992C88.0547 139.346 88.3359 139.023 88.8984 139.023H89.2188C89.4323 139.023 89.5807 139.049 89.6641 139.102C89.8203 139.195 89.9661 139.344 90.1016 139.547L95.1328 146.953C95.3255 147.234 95.4766 147.492 95.5859 147.727L95.9062 148.398C95.9115 148.409 95.9193 148.414 95.9297 148.414C95.9453 148.414 95.9479 148.346 95.9375 148.211C95.9271 148.076 95.901 147.88 95.8594 147.625C95.8177 147.365 95.7969 147.107 95.7969 146.852V139.5C95.7969 139.365 95.8359 139.253 95.9141 139.164C95.9974 139.07 96.0964 139.023 96.2109 139.023H97.2422C97.3516 139.023 97.4453 139.07 97.5234 139.164C97.6068 139.253 97.6484 139.365 97.6484 139.5V150.219C97.6484 150.427 97.5833 150.589 97.4531 150.703C97.2344 150.901 97.0365 151 96.8594 151H96.3828C96.1224 151 95.9323 150.958 95.8125 150.875C95.6354 150.74 95.4167 150.484 95.1562 150.109C92.1823 145.76 90.5885 143.411 90.375 143.062L89.7266 141.977C89.7161 141.961 89.7005 141.953 89.6797 141.953C89.6641 141.953 89.6641 141.992 89.6797 142.07C89.6953 142.148 89.7161 142.281 89.7422 142.469C89.7734 142.651 89.8021 142.854 89.8281 143.078C89.8802 143.599 89.9062 144.083 89.9062 144.531V150.523C89.9062 150.654 89.8646 150.766 89.7812 150.859C89.7031 150.953 89.6068 151 89.4922 151H88.4609C88.3516 151 88.2552 150.953 88.1719 150.859C88.0938 150.766 88.0547 150.654 88.0547 150.523V139.992Z" fill="black"/>
<g filter="url(#filter0_d_41_570)">
<rect x="15" y="15" width="100" height="100" rx="10" fill="#A10035"/>
</g>
<g filter="url(#filter1_d_41_570)">
<path d="M64.8198 40C52.1267 40 52.9193 45.5333 52.9193 45.5333L52.9334 51.2658H65.0462V52.9869H48.1223C48.1223 52.9869 40 52.061 40 64.9355C40 77.81 47.0893 77.3534 47.0893 77.3534H51.3203V71.3791C51.3203 71.3791 51.0922 64.2527 58.2964 64.2527H70.3101C70.3101 64.2527 77.0598 64.3624 77.0598 57.6952V46.6713C77.0598 46.6713 78.0846 40 64.8198 40ZM58.1408 43.8548C59.3459 43.8548 60.3199 44.834 60.3199 46.0454C60.3199 47.2568 59.3459 48.236 58.1408 48.236C56.9357 48.236 55.9616 47.2568 55.9616 46.0454C55.9616 44.834 56.9357 43.8548 58.1408 43.8548Z" fill="url(#paint0_linear_41_570)"/>
<path d="M65.1803 90C77.8734 90 77.0808 84.4667 77.0808 84.4667L77.0666 78.7342H64.9539V77.0131H81.8778C81.8778 77.0131 90.0001 77.939 90.0001 65.0645C90.0001 52.19 82.9107 52.6466 82.9107 52.6466H78.6798V58.6209C78.6798 58.6209 78.9078 65.7473 71.7036 65.7473H59.69C59.69 65.7473 52.9402 65.6376 52.9402 72.3048V83.3287C52.9402 83.3287 51.9154 90 65.1803 90ZM71.8593 86.1452C70.6542 86.1452 69.6801 85.166 69.6801 83.9546C69.6801 82.7432 70.6542 81.764 71.8593 81.764C73.0644 81.764 74.0384 82.7432 74.0384 83.9546C74.0384 85.166 73.0644 86.1452 71.8593 86.1452Z" fill="url(#paint1_linear_41_570)"/>
</g>
<defs>
<filter id="filter0_d_41_570" x="0" y="0" width="130" height="130" filterUnits="userSpaceOnUse" color-interpolation-filters="sRGB">
<feFlood flood-opacity="0" result="BackgroundImageFix"/>
<feColorMatrix in="SourceAlpha" type="matrix" values="0 0 0 0 0 0 0 0 0 0 0 0 0 0 0 0 0 0 127 0" result="hardAlpha"/>
<feMorphology radius="5" operator="dilate" in="SourceAlpha" result="effect1_dropShadow_41_570"/>
<feOffset/>
<feGaussianBlur stdDeviation="5"/>
<feComposite in2="hardAlpha" operator="out"/>
<feColorMatrix type="matrix" values="0 0 0 0 0 0 0 0 0 0 0 0 0 0 0 0 0 0 0.25 0"/>
<feBlend mode="normal" in2="BackgroundImageFix" result="effect1_dropShadow_41_570"/>
<feBlend mode="normal" in="SourceGraphic" in2="effect1_dropShadow_41_570" result="shape"/>
</filter>
<filter id="filter1_d_41_570" x="30" y="34" width="70" height="70" filterUnits="userSpaceOnUse" color-interpolation-filters="sRGB">
<feFlood flood-opacity="0" result="BackgroundImageFix"/>
<feColorMatrix in="SourceAlpha" type="matrix" values="0 0 0 0 0 0 0 0 0 0 0 0 0 0 0 0 0 0 127 0" result="hardAlpha"/>
<feOffset dy="4"/>
<feGaussianBlur stdDeviation="5"/>
<feComposite in2="hardAlpha" operator="out"/>
<feColorMatrix type="matrix" values="0 0 0 0 0 0 0 0 0 0 0 0 0 0 0 0 0 0 0.25 0"/>
<feBlend mode="normal" in2="BackgroundImageFix" result="effect1_dropShadow_41_570"/>
<feBlend mode="normal" in="SourceGraphic" in2="effect1_dropShadow_41_570" result="shape"/>
</filter>
<linearGradient id="paint0_linear_41_570" x1="44.8051" y1="44.4974" x2="69.7113" y2="69.0267" gradientUnits="userSpaceOnUse">
<stop stop-color="#387EB8"/>
<stop offset="1" stop-color="#366994"/>
</linearGradient>
<linearGradient id="paint1_linear_41_570" x1="60.014" y1="60.332" x2="86.7542" y2="85.4787" gradientUnits="userSpaceOnUse">
<stop stop-color="#FFE052"/>
<stop offset="1" stop-color="#FFC331"/>
</linearGradient>
</defs>
</svg>
