<svg width="141" height="50" viewBox="0 0 141 50" fill="none" xmlns="http://www.w3.org/2000/svg">
<path d="M49.4893 0.483609C48.6343 1.0381 47.5513 3.08973 47.5513 4.14327C47.5513 5.58496 49.7173 7.24844 51.5414 7.24844C53.6505 7.24844 55.5316 5.52951 55.5316 3.64423C55.5316 1.0381 51.7124 -0.958077 49.4893 0.483609Z" fill="#000072"/>
<path d="M72.0623 11.7399C71.2643 12.0726 70.0672 12.8489 69.3832 13.4588L68.0722 14.6232V13.1816C68.0722 11.7399 67.9582 11.6844 64.6521 11.6844H61.2319L61.3459 30.6481L61.5169 49.6673L64.8231 49.8337L68.0722 50V42.1816V34.3633L69.6682 35.4168C77.7625 41.0172 88.8779 34.5296 88.8209 24.1605C88.8209 18.8374 86.1988 14.4569 81.6957 12.1835C79.3016 11.019 74.5134 10.7972 72.0623 11.7399ZM79.0166 18.2275C83.3487 20.6672 83.2347 27.6539 78.7886 30.2045C74.9694 32.4225 70.5233 31.0917 68.4142 26.9885C67.1601 24.4378 67.5022 21.8317 69.5542 19.4473C71.9483 16.7303 75.4824 16.2867 79.0166 18.2275Z" fill="#000072"/>
<path d="M104.211 11.6844C103.527 11.9062 102.444 12.8488 101.76 13.6806L100.563 15.1777V13.4033V11.6844H97.1428H93.7227L93.8367 24.2714L94.0077 36.9139L97.3138 37.0802L100.563 37.2466V29.4837C100.563 25.214 100.791 21.1108 101.133 20.279C101.931 18.2274 105.294 16.9521 107.802 17.6729C109.626 18.2274 109.74 18.172 110.481 16.453C111.963 12.9597 112.134 12.128 111.336 11.6289C110.31 11.019 105.807 11.0744 104.211 11.6844Z" fill="#000072"/>
<path d="M120.685 12.4607C113.161 15.8986 110.938 25.7132 116.182 32.3671C123.136 41.1836 138.014 37.912 140.522 26.9885C143.03 16.1204 131.401 7.63663 120.685 12.4607ZM130.774 18.0611C134.365 19.891 135.392 25.7132 132.712 28.8183C127.867 34.4187 118.348 29.5946 120.172 22.3862C120.4 21.6099 121.426 20.1128 122.509 19.0592C124.048 17.5621 124.846 17.2294 126.727 17.2294C128.038 17.2294 129.862 17.6175 130.774 18.0611Z" fill="#000072"/>
<path d="M1.66473 13.9024C2.12074 15.1777 4.05881 20.889 5.93988 26.7112L9.417 37.2466L12.6091 37.0802L15.8012 36.9139L18.9933 28.5965C21.7864 21.2771 22.1855 20.4454 22.6415 21.6653C22.9265 22.4416 24.3515 26.2121 25.8336 29.9827L28.4557 36.9139H31.5908H34.7259L39.115 24.2714L43.5042 11.6844H40.1411H36.835L34.1559 19.4473C32.6738 23.7169 31.2488 27.0993 30.9638 26.8775C30.6788 26.7112 30.4507 26.3785 30.4507 26.1012C30.4507 25.824 29.2537 22.497 27.8287 18.671L25.2066 11.6844H22.1855H19.2213L16.2002 19.4473C14.5472 23.7169 13.0651 27.0993 12.8371 26.8775C12.6661 26.7112 11.4121 23.2733 10.158 19.281L7.76394 11.9616L4.28682 11.7953L0.866699 11.6289L1.66473 13.9024Z" fill="#000072"/>
<path d="M48.6914 24.4378V37.1912H51.8265H54.9616V24.4378V11.6844H51.8265H48.6914V24.4378Z" fill="#000072"/>
</svg>
